<svg width="96" height="96" xmlns="http://www.w3.org/2000/svg" xmlns:xlink="http://www.w3.org/1999/xlink" xml:space="preserve" overflow="hidden"><g transform="translate(-912 -408)"><path d="M988 426C988 430.418 975.464 434 960 434 944.536 434 932 430.418 932 426 932 421.582 944.536 418 960 418 975.464 418 988 421.582 988 426Z" fill="#00B0F0"/><path d="M980 446C978.8 446 978 445.2 978 444 978 442.8 978.8 442 980 442 981.2 442 982 442.8 982 444 982 445.2 981.2 446 980 446ZM960 438C944.6 438 932 434.4 932 430L932 446C932 450.4 944.6 454 960 454 975.4 454 988 450.4 988 446L988 430C988 434.4 975.4 438 960 438Z" fill="#00B0F0"/><path d="M980 466C978.8 466 978 465.2 978 464 978 462.8 978.8 462 980 462 981.2 462 982 462.8 982 464 982 465.2 981.2 466 980 466ZM960 458C944.6 458 932 454.4 932 450L932 466C932 470.4 944.6 474 960 474 975.4 474 988 470.4 988 466L988 450C988 454.4 975.4 458 960 458Z" fill="#00B0F0"/><path d="M980 486C978.8 486 978 485.2 978 484 978 482.8 978.8 482 980 482 981.2 482 982 482.8 982 484 982 485.2 981.2 486 980 486ZM960 478C944.6 478 932 474.4 932 470L932 486C932 490.4 944.6 494 960 494 975.4 494 988 490.4 988 486L988 470C988 474.4 975.4 478 960 478Z" fill="#00B0F0"/></g></svg>