<svg width="96" height="96" xmlns="http://www.w3.org/2000/svg" xmlns:xlink="http://www.w3.org/1999/xlink" xml:space="preserve" overflow="hidden"><g transform="translate(-737 -389)"><path d="M818.4 410.908 818.014 410.908C817.959 407.91 816.519 405.107 814.114 403.317L814.053 403.271 813.988 403.23C812.393 402.182 810.529 401.617 808.621 401.605 807.618 401.599 806.62 401.747 805.662 402.046 803.763 398.391 799.981 396.104 795.862 396.119 795.032 396.138 794.206 396.226 793.391 396.384L793.332 396.394 793.269 396.408C788.259 397.555 784.697 402 784.67 407.14 784.67 407.194 784.67 407.307 784.67 407.307 784.228 407.231 783.779 407.198 783.331 407.207 780.39 407.213 777.627 408.617 775.887 410.988 773.828 413.77 773.419 417.443 774.814 420.61L774.837 420.663 774.863 420.716C776.401 423.744 779.413 425.746 782.8 425.992L782.886 426 818.291 426C822.414 425.957 825.792 422.712 826 418.594L826 418.554 826 418.514C826 414.315 822.599 410.911 818.4 410.908ZM818.275 424 782.975 424C780.284 423.808 777.888 422.226 776.654 419.826 775.544 417.316 775.862 414.403 777.489 412.192 778.854 410.328 781.023 409.222 783.333 409.211 783.742 409.212 784.151 409.24 784.556 409.296L786.656 409.686C786.661 409.687 786.667 409.684 786.668 409.678 786.668 409.677 786.668 409.677 786.668 409.676L786.668 407.3C786.622 403.036 789.55 399.315 793.705 398.355 794.413 398.217 795.131 398.137 795.852 398.117 799.29 398.1 802.437 400.044 803.962 403.126L804.674 404.549C804.677 404.552 804.683 404.552 804.686 404.549L806.228 403.956C807 403.712 807.805 403.591 808.614 403.598 810.142 403.611 811.633 404.067 812.907 404.91 814.836 406.343 815.984 408.597 816.009 411L816.009 412.9C816.009 412.905 816.013 412.91 816.019 412.91L818.394 412.91C821.487 412.907 823.997 415.411 824 418.504 824 418.507 824 418.511 824 418.514 823.853 421.574 821.338 423.984 818.275 424Z" stroke="#FF0000"/><path d="M787 434 749 434C746.791 434 745 435.791 745 438L745 463C745 465.209 746.791 467 749 467L764 467 764 473 758 473 758 475 778 475 778 473 772 473 772 467 787 467C789.209 467 791 465.209 791 463L791 438C791 435.791 789.209 434 787 434ZM770 473 766 473 766 467 770 467ZM789 463C789 464.105 788.105 465 787 465L749 465C747.895 465 747 464.105 747 463L747 438C747 436.895 747.895 436 749 436L787 436C788.105 436 789 436.895 789 438Z" stroke="#FF0000"/><path d="M749 463 787 463 787 438 749 438ZM751 440 785 440 785 461 751 461Z" stroke="#FF0000"/><path d="M755.958 429.592C755.375 428.292 755.052 426.89 755.007 425.466 754.951 419.19 759.994 414.056 766.27 414 766.337 413.999 766.405 413.999 766.472 414L766.562 414C766.575 414 766.578 414.008 766.569 414.017L761.293 419.293 762.707 420.707 769.414 414 762.707 407.293 761.293 408.707 764.651 412.065C764.659 412.073 764.651 412.081 764.645 412.082 757.464 412.876 752.286 419.341 753.079 426.522 753.227 427.864 753.583 429.175 754.132 430.408Z" stroke="#FF0000"/><path d="M809.042 431.408C809.625 432.708 809.948 434.11 809.993 435.534 810.049 441.81 805.006 446.944 798.73 447 798.663 447.001 798.595 447.001 798.528 447L798.438 447C798.425 447 798.422 446.992 798.431 446.983L803.707 441.707 802.293 440.293 795.586 447 802.293 453.707 803.707 452.293 800.349 448.935C800.341 448.927 800.349 448.919 800.355 448.918 807.536 448.124 812.714 441.659 811.921 434.478 811.773 433.136 811.417 431.825 810.868 430.592Z" stroke="#FF0000"/></g></svg>