<svg width="96" height="96" xmlns="http://www.w3.org/2000/svg" xmlns:xlink="http://www.w3.org/1999/xlink" xml:space="preserve" overflow="hidden"><g transform="translate(-526 -432)"><path d="M557.2 483.5C553.4 485 549.9 487 546.7 489.5 544.5 491.3 543.1 494 543 496.9L541.3 511.7C541 513.9 542 516.1 543.8 517.3 545.6 518.5 547.5 519.4 549.5 520.2L550.4 520.2 550.4 516.3C548.9 515.7 547.4 514.9 546 514 545.4 513.6 545.1 512.9 545.2 512.2L547 497.2 547 497C547.1 495.2 547.9 493.6 549.3 492.5 552 490.2 555.9 488.1 561.3 486.1 564.3 487.9 568.9 489 574 489 579.1 489 583.7 487.9 586.7 486.1 592.2 488.1 596 490.2 598.7 492.5 600.1 493.6 600.9 495.3 601 497L602.8 512.1C602.9 512.8 602.6 513.5 602 513.9L602 513.9C600.6 514.8 599.2 515.6 597.6 516.2L597.6 520.1 598.5 520.1C600.5 519.4 602.4 518.4 604.2 517.2L604.2 517.2C606 515.9 607 513.8 606.7 511.6L605 496.9C604.9 494 603.5 491.3 601.3 489.5 598.1 487 594.6 484.9 590.8 483.5 590.8 478.4 591 464.4 591 458.7 591 457.1 590.8 455.5 590.4 453.9 589.1 449.1 585.8 445.1 581.4 442.8 581 442.6 580.4 442.6 580.1 442.9L579.2 443.6 578.2 442.2C577.9 441.7 577.4 441.4 576.9 441.3 575.9 441.1 575 441 574 441 570 441 566 442.5 563 445.1 559.2 448.5 557.1 453.3 557.2 458.4L557.2 483.5ZM562.2 467.2 562.9 459 585 459 585.7 467.2C584.5 473.7 578.3 478 571.7 476.8 566.9 475.9 563.1 472.1 562.2 467.2ZM566.2 483.9C567.3 483 568 481.5 568 480L568 479.8C571.8 481.4 576.2 481.4 580 479.8L580 480C580 481.5 580.7 482.9 581.8 483.9 579.3 484.7 576.6 485 574 485 571.4 485 568.7 484.7 566.2 483.9Z" fill="#7030A0"/><path d="M595.6 497.3C595.6 495.9 594.5 494.8 593.1 494.8L593.1 494.8 555 494.8C553.6 494.8 552.5 495.9 552.5 497.3L552.5 497.3 552.5 522.2 544.9 522.2 544.9 523.5C544.9 524.9 546 526 547.4 526L600.7 526C602.1 526 603.2 524.9 603.2 523.5L603.2 522.2 595.6 522.2 595.6 497.3ZM568.8 513.8 567.4 515.2 561.8 509.6 567.4 504 568.8 505.4 564.6 509.6 568.8 513.8ZM572.6 515.9 570.8 515.1 575.5 503.8 577.3 504.6 572.6 515.9ZM580.6 515.3 579.2 513.9 583.4 509.7 579.2 505.5 580.6 504.1 586.2 509.7 580.6 515.3Z" fill="#7030A0"/></g></svg>